Title                            : Blitz
Year                             : 2011
Genre                            : Thriller
iMDB URL                         : http://www.imdb.com/title/tt1297919/

Complete name                    : Blitz.2011.BRRIP.720P.H264-ZEKTORM.mp4
Format                           : MPEG-4
Format profile                   : Base Media
Codec ID                         : isom
File size                        : 2.25 GiB
Duration                         : 1h 37mn
Overall bit rate                 : 3314 Kbps
Subtitles                        : English (Format: srt)

Video
ID                               : 1
Format                           : AVC
Format/Info                      : Advanced Video Codec
Format profile                   : High@L4.0
Format settings, CABAC           : Yes
Format settings, ReFrames        : 8 frames
Codec ID                         : avc1
Codec ID/Info                    : Advanced Video Coding
Duration                         : 1h 37mn
Bit rate mode                    : Variable
Bit rate                         : 2867 Kbps
Width                            : 1280 pixels
Height                           : 544 pixels
Display aspect ratio             : 2.35
Frame rate mode                  : Constant
Frame rate                       : 24.000 fps
Resolution                       : 24 bits
Colorimetry                      : 4:2:0
Scan type                        : Progressive
Bits/(Pixel*Frame)               : 0.172
Stream size                      : 1.94 GiB (86%)
Title                            : Video
Writing library                  : x264

Audio
ID                               : 2
Format                           : AAC
Format/Info                      : Advanced Audio Codec
Format version                   : Version 4
Format profile                   : LC
Format settings, SBR             : No
Codec ID                         : 40
Duration                         : 1h 37mn
Bit rate mode                    : Variable
Bit rate                         : 444 Kbps
Maximum bit rate                 : 546 Kbps
Channel(s)                       : 6 channels
Channel positions                : Front: L C R, Rear: L R, LFE
Sampling rate                    : 48.0 KHz
Resolution                       : 16 bits
Stream size                      : 308 MiB (13%)
Language                         : English


Screenshots:

[img]http://img718.imageshack.us/img718/6436/snapb1.png[/img]

[img]http://img847.imageshack.us/img847/5919/snapb2.png[/img]

[img]http://img534.imageshack.us/img534/6734/snapb3.png[/img]

[img]http://img685.imageshack.us/img685/6016/snapb4.png[/img]
